<?xml version="1.0" encoding="utf-8"?>
<!-- Generator: Adobe Illustrator 28.0.0, SVG Export Plug-In . SVG Version: 6.00 Build 0)  -->
<!DOCTYPE svg PUBLIC "-//W3C//DTD SVG 1.1//EN" "http://www.w3.org/Graphics/SVG/1.1/DTD/svg11.dtd" [
	<!ENTITY ns_flows "http://ns.adobe.com/Flows/1.0/">
	<!ENTITY ns_extend "http://ns.adobe.com/Extensibility/1.0/">
	<!ENTITY ns_ai "http://ns.adobe.com/AdobeIllustrator/10.0/">
	<!ENTITY ns_graphs "http://ns.adobe.com/Graphs/1.0/">
	<!ENTITY ns_vars "http://ns.adobe.com/Variables/1.0/">
	<!ENTITY ns_imrep "http://ns.adobe.com/ImageReplacement/1.0/">
	<!ENTITY ns_sfw "http://ns.adobe.com/SaveForWeb/1.0/">
	<!ENTITY ns_custom "http://ns.adobe.com/GenericCustomNamespace/1.0/">
	<!ENTITY ns_adobe_xpath "http://ns.adobe.com/XPath/1.0/">
]>
<svg version="1.1" xmlns:x="&ns_extend;" xmlns:i="&ns_ai;" xmlns:graph="&ns_graphs;"
	 xmlns="http://www.w3.org/2000/svg" xmlns:xlink="http://www.w3.org/1999/xlink" xmlns:a="http://ns.adobe.com/AdobeSVGViewerExtensions/3.0/"
	 x="0px" y="0px" width="750.708px" height="750.703px" viewBox="0 0 750.708 750.703" enable-background="new 0 0 750.708 750.703"
	 xml:space="preserve">
<metadata>
	<sfw  xmlns="&ns_sfw;">
		<slices></slices>
		<sliceSourceBounds  bottomLeftOrigin="true" height="7571.864" width="8798.254" x="-1000" y="-3220"></sliceSourceBounds>
	</sfw>
</metadata>
<g id="FILL-BACKGROUND">
	<rect x="0.291" fill="#FFFFFF" width="750" height="750"/>
</g>
<g id="N-TEXT">
</g>
<g id="N-DIMENSIONS">
	<g id="MTEXT_48_">
		<g>
			<g>
				<path fill="#1B7FFF" d="M123.187,617.226c-0.646-0.277-1.137-0.643-1.473-1.096c-0.336-0.454-0.515-0.941-0.535-1.465
					c0-0.085,0.031-0.159,0.096-0.224c0.063-0.063,0.144-0.096,0.24-0.096h0.783c0.192,0,0.325,0.106,0.4,0.319
					c0.096,0.448,0.37,0.835,0.824,1.16c0.453,0.326,1.101,0.488,1.943,0.488c0.907,0,1.584-0.16,2.032-0.48
					c0.448-0.319,0.672-0.762,0.672-1.327c0-0.363-0.109-0.662-0.328-0.896c-0.219-0.234-0.544-0.439-0.976-0.616
					c-0.432-0.176-1.08-0.392-1.944-0.647c-0.821-0.234-1.475-0.485-1.96-0.752s-0.851-0.595-1.096-0.984s-0.368-0.883-0.368-1.479
					c0-0.576,0.154-1.091,0.464-1.545c0.31-0.453,0.758-0.81,1.345-1.071c0.586-0.262,1.279-0.393,2.08-0.393
					c0.831,0,1.544,0.147,2.136,0.44c0.592,0.293,1.042,0.661,1.352,1.104c0.31,0.443,0.475,0.889,0.496,1.336
					c0,0.097-0.032,0.177-0.096,0.24c-0.064,0.064-0.145,0.097-0.24,0.097h-0.8c-0.086,0-0.166-0.027-0.24-0.08
					c-0.074-0.054-0.128-0.134-0.16-0.24c-0.063-0.459-0.319-0.837-0.768-1.136s-1.008-0.448-1.68-0.448
					c-0.726,0-1.302,0.142-1.729,0.424c-0.427,0.283-0.64,0.701-0.64,1.256c0,0.374,0.099,0.678,0.296,0.912
					s0.501,0.442,0.912,0.624c0.41,0.182,1.01,0.39,1.8,0.624c0.906,0.256,1.618,0.512,2.136,0.768
					c0.518,0.257,0.904,0.574,1.16,0.952c0.256,0.379,0.384,0.867,0.384,1.464c0,1.003-0.381,1.784-1.144,2.345
					c-0.763,0.56-1.795,0.84-3.097,0.84C124.592,617.642,123.831,617.503,123.187,617.226z"/>
				<path fill="#1B7FFF" d="M131.714,617.378c-0.069-0.069-0.104-0.158-0.104-0.265v-7.584c0-0.106,0.034-0.194,0.104-0.264
					s0.157-0.104,0.265-0.104h0.672c0.106,0,0.191,0.035,0.256,0.104c0.063,0.069,0.096,0.157,0.096,0.264v0.544
					c0.576-0.714,1.354-1.072,2.336-1.072c1.174,0,2.006,0.491,2.496,1.473c0.256-0.448,0.621-0.806,1.096-1.072
					s1.006-0.4,1.593-0.4c0.874,0,1.589,0.299,2.144,0.896s0.832,1.462,0.832,2.592v4.624c0,0.106-0.034,0.195-0.104,0.265
					c-0.07,0.069-0.158,0.104-0.265,0.104h-0.688c-0.107,0-0.195-0.034-0.265-0.104s-0.104-0.158-0.104-0.265v-4.479
					c0-0.854-0.176-1.464-0.528-1.832c-0.352-0.368-0.815-0.553-1.392-0.553c-0.512,0-0.952,0.189-1.32,0.568
					s-0.552,0.984-0.552,1.816v4.479c0,0.106-0.035,0.195-0.104,0.265s-0.157,0.104-0.264,0.104h-0.704
					c-0.106,0-0.194-0.034-0.264-0.104s-0.104-0.158-0.104-0.265v-4.479c0-0.843-0.184-1.451-0.552-1.824s-0.824-0.561-1.368-0.561
					c-0.512,0-0.952,0.188-1.319,0.561c-0.368,0.373-0.553,0.976-0.553,1.808v4.496c0,0.106-0.034,0.195-0.104,0.265
					s-0.157,0.104-0.264,0.104h-0.704C131.871,617.481,131.783,617.447,131.714,617.378z"/>
				<path fill="#1B7FFF" d="M145.811,617.378c-0.07-0.069-0.104-0.158-0.104-0.265v-1.104c0-0.106,0.034-0.197,0.104-0.272
					c0.069-0.074,0.157-0.112,0.264-0.112h1.104c0.106,0,0.195,0.038,0.265,0.112c0.069,0.075,0.104,0.166,0.104,0.272v1.104
					c0,0.106-0.034,0.195-0.104,0.265s-0.158,0.104-0.265,0.104h-1.104C145.968,617.481,145.88,617.447,145.811,617.378z"/>
				<path fill="#1B7FFF" d="M155.25,617.226c-0.646-0.277-1.137-0.643-1.473-1.096c-0.336-0.454-0.515-0.941-0.535-1.465
					c0-0.085,0.031-0.159,0.096-0.224c0.063-0.063,0.144-0.096,0.24-0.096h0.783c0.192,0,0.325,0.106,0.4,0.319
					c0.096,0.448,0.37,0.835,0.824,1.16c0.453,0.326,1.101,0.488,1.943,0.488c0.907,0,1.584-0.16,2.032-0.48
					c0.448-0.319,0.672-0.762,0.672-1.327c0-0.363-0.109-0.662-0.328-0.896s-0.544-0.439-0.976-0.616
					c-0.432-0.176-1.08-0.392-1.944-0.647c-0.821-0.234-1.475-0.485-1.96-0.752s-0.851-0.595-1.096-0.984s-0.368-0.883-0.368-1.479
					c0-0.576,0.154-1.091,0.464-1.545c0.31-0.453,0.758-0.81,1.345-1.071c0.586-0.262,1.279-0.393,2.08-0.393
					c0.831,0,1.544,0.147,2.136,0.44s1.042,0.661,1.352,1.104c0.31,0.443,0.475,0.889,0.496,1.336c0,0.097-0.032,0.177-0.096,0.24
					c-0.064,0.064-0.145,0.097-0.24,0.097h-0.8c-0.086,0-0.166-0.027-0.24-0.08c-0.074-0.054-0.128-0.134-0.16-0.24
					c-0.063-0.459-0.319-0.837-0.768-1.136s-1.008-0.448-1.68-0.448c-0.726,0-1.302,0.142-1.729,0.424
					c-0.427,0.283-0.64,0.701-0.64,1.256c0,0.374,0.099,0.678,0.296,0.912s0.501,0.442,0.912,0.624c0.41,0.182,1.01,0.39,1.8,0.624
					c0.906,0.256,1.618,0.512,2.136,0.768c0.518,0.257,0.904,0.574,1.16,0.952c0.256,0.379,0.384,0.867,0.384,1.464
					c0,1.003-0.381,1.784-1.144,2.345c-0.763,0.56-1.795,0.84-3.097,0.84C156.655,617.642,155.895,617.503,155.25,617.226z"/>
				<path fill="#1B7FFF" d="M163.649,607.489c-0.069-0.069-0.104-0.157-0.104-0.264v-0.832c0-0.106,0.034-0.197,0.104-0.272
					c0.069-0.074,0.157-0.111,0.265-0.111h0.943c0.106,0,0.197,0.037,0.272,0.111c0.074,0.075,0.111,0.166,0.111,0.272v0.832
					c0,0.106-0.037,0.194-0.111,0.264c-0.075,0.069-0.166,0.104-0.272,0.104h-0.943
					C163.807,607.594,163.719,607.559,163.649,607.489z M163.777,617.378c-0.069-0.069-0.104-0.158-0.104-0.265v-7.584
					c0-0.106,0.034-0.194,0.104-0.264s0.157-0.104,0.265-0.104h0.704c0.106,0,0.194,0.035,0.264,0.104s0.104,0.157,0.104,0.264
					v7.584c0,0.106-0.034,0.195-0.104,0.265s-0.157,0.104-0.264,0.104h-0.704C163.935,617.481,163.847,617.447,163.777,617.378z"/>
				<path fill="#1B7FFF" d="M167.617,617.378c-0.069-0.069-0.104-0.158-0.104-0.265v-7.584c0-0.106,0.034-0.194,0.104-0.264
					s0.157-0.104,0.265-0.104h0.688c0.117,0,0.208,0.032,0.272,0.097c0.063,0.063,0.096,0.154,0.096,0.271v0.704
					c0.32-0.395,0.69-0.698,1.112-0.912c0.421-0.213,0.946-0.32,1.575-0.32c1.024,0,1.819,0.328,2.385,0.984s0.848,1.522,0.848,2.6
					v4.528c0,0.106-0.035,0.195-0.104,0.265c-0.07,0.069-0.158,0.104-0.265,0.104h-0.735c-0.107,0-0.195-0.034-0.265-0.104
					s-0.104-0.158-0.104-0.265v-4.432c0-0.769-0.188-1.365-0.561-1.792s-0.906-0.641-1.6-0.641c-0.683,0-1.227,0.217-1.632,0.648
					c-0.406,0.432-0.608,1.026-0.608,1.784v4.432c0,0.106-0.034,0.195-0.104,0.265c-0.07,0.069-0.158,0.104-0.265,0.104h-0.735
					C167.774,617.481,167.687,617.447,167.617,617.378z"/>
				<path fill="#1B7FFF" d="M178.426,620.554c-0.534-0.299-0.91-0.641-1.128-1.024c-0.219-0.384-0.328-0.715-0.328-0.992
					c0-0.096,0.037-0.179,0.111-0.248c0.075-0.069,0.16-0.104,0.257-0.104h0.704c0.096,0,0.176,0.023,0.239,0.072
					c0.064,0.048,0.117,0.136,0.16,0.264c0.299,0.854,0.977,1.28,2.032,1.28c0.8,0,1.392-0.171,1.776-0.513
					c0.384-0.341,0.575-0.943,0.575-1.808v-1.104c-0.618,0.789-1.482,1.184-2.592,1.184c-1.131,0-1.976-0.362-2.536-1.088
					c-0.56-0.726-0.855-1.643-0.888-2.752l-0.016-0.448l0.016-0.432c0.032-1.099,0.328-2.014,0.888-2.744
					c0.561-0.73,1.405-1.097,2.536-1.097c1.12,0,1.995,0.411,2.624,1.232v-0.688c0-0.107,0.034-0.197,0.104-0.272
					c0.069-0.074,0.157-0.112,0.264-0.112h0.688c0.107,0,0.195,0.038,0.265,0.112c0.069,0.075,0.104,0.165,0.104,0.272v7.76
					c0,2.464-1.242,3.695-3.728,3.695C179.668,621.001,178.959,620.852,178.426,620.554z M182.21,615.585
					c0.378-0.484,0.584-1.068,0.615-1.752c0.011-0.096,0.017-0.282,0.017-0.56c0-0.267-0.006-0.448-0.017-0.544
					c-0.031-0.683-0.237-1.267-0.615-1.752c-0.379-0.485-0.942-0.729-1.688-0.729c-0.768,0-1.325,0.243-1.672,0.729
					s-0.536,1.112-0.568,1.88l-0.016,0.416l0.016,0.432c0.032,0.769,0.222,1.396,0.568,1.88c0.347,0.486,0.904,0.729,1.672,0.729
					C181.268,616.313,181.831,616.071,182.21,615.585z"/>
				<path fill="#1B7FFF" d="M186.817,617.378c-0.069-0.069-0.104-0.158-0.104-0.265v-10.624c0-0.117,0.035-0.208,0.104-0.271
					c0.069-0.064,0.157-0.097,0.264-0.097h0.704c0.106,0,0.194,0.035,0.264,0.104s0.104,0.157,0.104,0.264v10.624
					c0,0.106-0.035,0.195-0.104,0.265s-0.157,0.104-0.264,0.104h-0.704C186.975,617.481,186.887,617.447,186.817,617.378z"/>
				<path fill="#1B7FFF" d="M191.241,616.625c-0.65-0.677-1.008-1.603-1.071-2.775l-0.017-0.544l0.017-0.528
					c0.063-1.152,0.421-2.069,1.071-2.752s1.521-1.024,2.608-1.024c1.173,0,2.082,0.374,2.728,1.12
					c0.646,0.747,0.969,1.761,0.969,3.04v0.288c0,0.107-0.035,0.195-0.104,0.265s-0.157,0.104-0.264,0.104h-5.552v0.145
					c0.031,0.693,0.245,1.285,0.64,1.775c0.395,0.491,0.917,0.736,1.568,0.736c0.501,0,0.909-0.099,1.224-0.296
					s0.552-0.402,0.712-0.616c0.096-0.128,0.171-0.205,0.224-0.232c0.054-0.026,0.145-0.04,0.272-0.04h0.704
					c0.096,0,0.179,0.027,0.248,0.08c0.069,0.054,0.104,0.123,0.104,0.208c0,0.235-0.144,0.518-0.432,0.849
					c-0.288,0.33-0.696,0.615-1.225,0.855c-0.527,0.24-1.133,0.36-1.815,0.36C192.762,617.642,191.892,617.303,191.241,616.625z
					 M196.09,612.729v-0.048c0-0.747-0.203-1.354-0.608-1.824c-0.405-0.469-0.949-0.704-1.632-0.704
					c-0.693,0-1.237,0.235-1.632,0.704c-0.395,0.47-0.592,1.077-0.592,1.824v0.048H196.09z"/>
			</g>
		</g>
	</g>
	<g id="MTEXT_47_">
		<g>
			<g>
				<path fill="#1B7FFF" d="M126.161,650.753c-0.069-0.069-0.104-0.158-0.104-0.265v-9.456h-3.089c-0.106,0-0.194-0.034-0.264-0.104
					s-0.104-0.157-0.104-0.265v-0.624c0-0.117,0.034-0.21,0.104-0.279s0.157-0.104,0.264-0.104h7.681
					c0.117,0,0.208,0.035,0.271,0.104c0.064,0.069,0.097,0.162,0.097,0.279v0.624c0,0.107-0.035,0.195-0.104,0.265
					s-0.157,0.104-0.264,0.104h-3.072v9.456c0,0.106-0.037,0.195-0.112,0.265c-0.074,0.069-0.165,0.104-0.271,0.104h-0.769
					C126.318,650.856,126.23,650.822,126.161,650.753z"/>
				<path fill="#1B7FFF" d="M133.321,650.761c-0.075-0.064-0.134-0.166-0.176-0.305l-2.272-7.424l-0.032-0.16
					c0-0.096,0.032-0.176,0.097-0.239c0.063-0.064,0.144-0.097,0.239-0.097h0.656c0.106,0,0.194,0.03,0.264,0.088
					c0.069,0.06,0.109,0.115,0.12,0.168l1.809,6.112l1.92-6.032c0.021-0.085,0.069-0.162,0.144-0.231s0.176-0.104,0.304-0.104h0.513
					c0.128,0,0.229,0.035,0.304,0.104c0.074,0.069,0.122,0.146,0.144,0.231l1.921,6.032l1.808-6.112
					c0.011-0.053,0.051-0.108,0.12-0.168c0.069-0.058,0.157-0.088,0.264-0.088h0.656c0.096,0,0.176,0.032,0.24,0.097
					c0.063,0.063,0.096,0.144,0.096,0.239l-0.032,0.16l-2.271,7.424c-0.043,0.139-0.102,0.24-0.177,0.305
					c-0.074,0.063-0.187,0.096-0.336,0.096h-0.575c-0.278,0-0.459-0.133-0.544-0.4l-1.872-5.792l-1.872,5.792
					c-0.086,0.268-0.267,0.4-0.544,0.4h-0.576C133.508,650.856,133.395,650.824,133.321,650.761z"/>
				<path fill="#1B7FFF" d="M144.225,640.864c-0.069-0.069-0.104-0.157-0.104-0.264v-0.832c0-0.106,0.034-0.197,0.104-0.272
					c0.069-0.074,0.157-0.111,0.265-0.111h0.943c0.106,0,0.197,0.037,0.272,0.111c0.074,0.075,0.111,0.166,0.111,0.272v0.832
					c0,0.106-0.037,0.194-0.111,0.264c-0.075,0.069-0.166,0.104-0.272,0.104h-0.943
					C144.382,640.969,144.294,640.934,144.225,640.864z M144.353,650.753c-0.069-0.069-0.104-0.158-0.104-0.265v-7.584
					c0-0.106,0.034-0.194,0.104-0.264s0.157-0.104,0.265-0.104h0.704c0.106,0,0.194,0.035,0.264,0.104s0.104,0.157,0.104,0.264
					v7.584c0,0.106-0.034,0.195-0.104,0.265s-0.157,0.104-0.264,0.104h-0.704C144.51,650.856,144.422,650.822,144.353,650.753z"/>
				<path fill="#1B7FFF" d="M148.192,650.753c-0.069-0.069-0.104-0.158-0.104-0.265v-7.584c0-0.106,0.034-0.194,0.104-0.264
					s0.157-0.104,0.265-0.104h0.688c0.117,0,0.208,0.032,0.272,0.097c0.063,0.063,0.096,0.154,0.096,0.271v0.704
					c0.32-0.395,0.69-0.698,1.112-0.912c0.421-0.213,0.946-0.32,1.575-0.32c1.024,0,1.819,0.328,2.385,0.984s0.848,1.522,0.848,2.6
					v4.528c0,0.106-0.035,0.195-0.104,0.265c-0.07,0.069-0.158,0.104-0.265,0.104h-0.735c-0.107,0-0.195-0.034-0.265-0.104
					s-0.104-0.158-0.104-0.265v-4.432c0-0.769-0.188-1.365-0.561-1.792s-0.906-0.641-1.6-0.641c-0.683,0-1.227,0.217-1.632,0.648
					c-0.406,0.432-0.608,1.026-0.608,1.784v4.432c0,0.106-0.034,0.195-0.104,0.265c-0.07,0.069-0.158,0.104-0.265,0.104h-0.735
					C148.35,650.856,148.262,650.822,148.192,650.753z"/>
				<path fill="#1B7FFF" d="M160.984,650.761c-0.064-0.064-0.096-0.139-0.096-0.225c0-0.074,0.021-0.144,0.063-0.208l3.664-5.168
					l-3.488-4.976c-0.042-0.064-0.063-0.134-0.063-0.208c0-0.085,0.032-0.16,0.096-0.224c0.064-0.064,0.139-0.097,0.225-0.097h0.911
					c0.149,0,0.288,0.091,0.416,0.272l2.864,4.048l2.832-4.048c0.106-0.182,0.245-0.272,0.416-0.272h0.848
					c0.086,0,0.16,0.032,0.225,0.097c0.063,0.063,0.096,0.139,0.096,0.224c0,0.074-0.021,0.144-0.063,0.208l-3.456,4.992
					l3.664,5.151c0.042,0.064,0.063,0.134,0.063,0.208c0,0.086-0.034,0.16-0.104,0.225c-0.07,0.063-0.147,0.096-0.232,0.096h-0.912
					c-0.16,0-0.299-0.085-0.416-0.256l-3.023-4.225l-3.009,4.225c-0.117,0.171-0.256,0.256-0.416,0.256h-0.88
					C161.123,650.856,161.048,650.824,160.984,650.761z"/>
				<path fill="#1B7FFF" d="M172.088,650.753c-0.063-0.069-0.096-0.158-0.096-0.265v-10.464c0-0.106,0.032-0.194,0.096-0.264
					c0.064-0.069,0.149-0.104,0.256-0.104h0.8c0.106,0,0.192,0.035,0.257,0.104c0.063,0.069,0.096,0.157,0.096,0.264v9.488h5.344
					c0.117,0,0.211,0.034,0.28,0.104s0.104,0.158,0.104,0.265v0.607c0,0.106-0.037,0.195-0.111,0.265
					c-0.075,0.069-0.166,0.104-0.272,0.104h-6.496C172.237,650.856,172.152,650.822,172.088,650.753z"/>
			</g>
		</g>
	</g>
	<g id="MTEXT_46_">
		<g>
			<g>
				<g>
					<path fill="#1B7FFF" d="M388.779,617.481v-16h10.594v2.789h-7.211v3.812h6.508v2.789h-6.508v6.609H388.779z"/>
					<path fill="#1B7FFF" d="M408.529,612.372v-6.891h3.328v12h-3.195v-2.18h-0.125c-0.271,0.703-0.72,1.269-1.348,1.695
						s-1.392,0.641-2.293,0.641c-0.802,0-1.508-0.183-2.117-0.547s-1.085-0.883-1.426-1.555s-0.515-1.477-0.52-2.414v-7.641h3.328
						v7.047c0.005,0.708,0.195,1.269,0.57,1.68s0.878,0.617,1.508,0.617c0.401,0,0.776-0.093,1.125-0.277s0.632-0.46,0.848-0.824
						S408.534,612.908,408.529,612.372z"/>
					<path fill="#1B7FFF" d="M417.842,601.481v16h-3.328v-16H417.842z"/>
					<path fill="#1B7FFF" d="M423.826,601.481v16h-3.328v-16H423.826z"/>
				</g>
			</g>
		</g>
	</g>
	<g id="MTEXT_45_">
		<g>
			<g>
				<path fill="#1B7FFF" d="M331.591,617.284c-0.069-0.069-0.104-0.158-0.104-0.265v-9.456h-3.089c-0.106,0-0.194-0.034-0.264-0.104
					s-0.104-0.157-0.104-0.265v-0.624c0-0.117,0.034-0.21,0.104-0.279s0.157-0.104,0.264-0.104h7.681
					c0.117,0,0.208,0.035,0.271,0.104c0.064,0.069,0.097,0.162,0.097,0.279v0.624c0,0.107-0.035,0.195-0.104,0.265
					s-0.157,0.104-0.264,0.104h-3.072v9.456c0,0.106-0.037,0.195-0.112,0.265c-0.074,0.069-0.165,0.104-0.271,0.104h-0.769
					C331.748,617.388,331.66,617.353,331.591,617.284z"/>
				<path fill="#1B7FFF" d="M338.751,617.292c-0.075-0.064-0.134-0.166-0.176-0.305l-2.272-7.424l-0.032-0.16
					c0-0.096,0.032-0.176,0.097-0.239c0.063-0.064,0.144-0.097,0.239-0.097h0.656c0.106,0,0.194,0.03,0.264,0.088
					c0.069,0.06,0.109,0.115,0.12,0.168l1.809,6.112l1.92-6.032c0.021-0.085,0.069-0.162,0.144-0.231s0.176-0.104,0.304-0.104h0.513
					c0.128,0,0.229,0.035,0.304,0.104c0.074,0.069,0.122,0.146,0.144,0.231l1.921,6.032l1.808-6.112
					c0.011-0.053,0.051-0.108,0.12-0.168c0.069-0.058,0.157-0.088,0.264-0.088h0.656c0.096,0,0.176,0.032,0.24,0.097
					c0.063,0.063,0.096,0.144,0.096,0.239l-0.032,0.16l-2.271,7.424c-0.043,0.139-0.102,0.24-0.177,0.305
					c-0.074,0.063-0.187,0.096-0.336,0.096h-0.575c-0.278,0-0.459-0.133-0.544-0.4l-1.872-5.792l-1.872,5.792
					c-0.086,0.268-0.267,0.4-0.544,0.4h-0.576C338.938,617.388,338.825,617.355,338.751,617.292z"/>
				<path fill="#1B7FFF" d="M349.654,607.395c-0.069-0.069-0.104-0.157-0.104-0.264V606.3c0-0.106,0.034-0.197,0.104-0.272
					c0.069-0.074,0.157-0.111,0.265-0.111h0.943c0.106,0,0.197,0.037,0.272,0.111c0.074,0.075,0.111,0.166,0.111,0.272v0.832
					c0,0.106-0.037,0.194-0.111,0.264c-0.075,0.069-0.166,0.104-0.272,0.104h-0.943C349.812,607.5,349.724,607.465,349.654,607.395z
					 M349.782,617.284c-0.069-0.069-0.104-0.158-0.104-0.265v-7.584c0-0.106,0.034-0.194,0.104-0.264s0.157-0.104,0.265-0.104h0.704
					c0.106,0,0.194,0.035,0.264,0.104s0.104,0.157,0.104,0.264v7.584c0,0.106-0.034,0.195-0.104,0.265s-0.157,0.104-0.264,0.104
					h-0.704C349.939,617.388,349.852,617.353,349.782,617.284z"/>
				<path fill="#1B7FFF" d="M353.622,617.284c-0.069-0.069-0.104-0.158-0.104-0.265v-7.584c0-0.106,0.034-0.194,0.104-0.264
					s0.157-0.104,0.265-0.104h0.688c0.117,0,0.208,0.032,0.272,0.097c0.063,0.063,0.096,0.154,0.096,0.271v0.704
					c0.32-0.395,0.69-0.698,1.112-0.912c0.421-0.213,0.946-0.32,1.575-0.32c1.024,0,1.819,0.328,2.385,0.984s0.848,1.522,0.848,2.6
					v4.528c0,0.106-0.035,0.195-0.104,0.265c-0.07,0.069-0.158,0.104-0.265,0.104h-0.735c-0.107,0-0.195-0.034-0.265-0.104
					s-0.104-0.158-0.104-0.265v-4.432c0-0.769-0.188-1.365-0.561-1.792s-0.906-0.641-1.6-0.641c-0.683,0-1.227,0.217-1.632,0.648
					c-0.406,0.432-0.608,1.026-0.608,1.784v4.432c0,0.106-0.034,0.195-0.104,0.265c-0.07,0.069-0.158,0.104-0.265,0.104h-0.735
					C353.779,617.388,353.691,617.353,353.622,617.284z"/>
			</g>
		</g>
	</g>
	<g id="MTEXT_44_">
		<g>
			<g>
				<path fill="#1B7FFF" d="M396.389,651.714c-0.086-0.069-0.166-0.157-0.24-0.264l-0.656-0.912c-0.565,0.267-1.237,0.4-2.016,0.4
					c-1.387,0-2.459-0.365-3.216-1.096c-0.758-0.73-1.158-1.832-1.2-3.305c-0.011-0.319-0.017-0.773-0.017-1.359
					c0-0.587,0.006-1.035,0.017-1.345c0.042-1.45,0.456-2.549,1.24-3.296c0.783-0.746,1.842-1.12,3.176-1.12
					c1.333,0,2.389,0.374,3.168,1.12c0.778,0.747,1.189,1.846,1.231,3.296c0.021,0.619,0.032,1.067,0.032,1.345
					c0,0.267-0.011,0.72-0.032,1.359c-0.042,1.473-0.432,2.565-1.168,3.28l1.072,1.504c0.032,0.064,0.048,0.122,0.048,0.176
					c0,0.086-0.032,0.16-0.096,0.225c-0.064,0.063-0.139,0.096-0.224,0.096h-0.816C396.575,651.818,396.474,651.783,396.389,651.714
					z M395.524,648.834c0.512-0.517,0.784-1.309,0.816-2.376c0.021-0.64,0.031-1.066,0.031-1.279c0-0.235-0.011-0.662-0.031-1.28
					c-0.032-1.066-0.305-1.861-0.816-2.384s-1.194-0.784-2.048-0.784s-1.539,0.262-2.057,0.784
					c-0.517,0.522-0.792,1.317-0.823,2.384c-0.011,0.31-0.017,0.736-0.017,1.28c0,0.533,0.006,0.96,0.017,1.279
					c0.031,1.067,0.304,1.859,0.815,2.376c0.513,0.518,1.2,0.776,2.064,0.776C394.33,649.61,395.013,649.352,395.524,648.834z"/>
				<path fill="#1B7FFF" d="M400.82,649.954c-0.555-0.656-0.832-1.527-0.832-2.616v-4.512c0-0.106,0.034-0.194,0.104-0.264
					s0.157-0.104,0.265-0.104h0.735c0.106,0,0.195,0.035,0.265,0.104s0.104,0.157,0.104,0.264v4.433
					c0,1.621,0.704,2.432,2.112,2.432c0.683,0,1.224-0.216,1.624-0.648c0.399-0.432,0.6-1.026,0.6-1.783v-4.433
					c0-0.106,0.035-0.194,0.104-0.264s0.157-0.104,0.264-0.104h0.736c0.106,0,0.194,0.035,0.264,0.104s0.104,0.157,0.104,0.264
					v7.584c0,0.106-0.035,0.195-0.104,0.265s-0.157,0.104-0.264,0.104h-0.688c-0.106,0-0.194-0.034-0.264-0.104
					s-0.104-0.158-0.104-0.265v-0.72c-0.31,0.416-0.672,0.728-1.088,0.936s-0.943,0.312-1.584,0.312
					C402.158,650.938,401.375,650.61,400.82,649.954z"/>
				<path fill="#1B7FFF" d="M410.355,649.922c-0.65-0.677-1.008-1.603-1.071-2.775l-0.017-0.544l0.017-0.528
					c0.063-1.152,0.421-2.069,1.071-2.752s1.521-1.024,2.608-1.024c1.173,0,2.082,0.374,2.728,1.12
					c0.646,0.747,0.969,1.761,0.969,3.04v0.288c0,0.107-0.035,0.195-0.104,0.265s-0.157,0.104-0.264,0.104h-5.552v0.145
					c0.031,0.693,0.245,1.285,0.64,1.775c0.395,0.491,0.917,0.736,1.568,0.736c0.501,0,0.909-0.099,1.224-0.296
					s0.552-0.402,0.712-0.616c0.096-0.128,0.171-0.205,0.224-0.232c0.054-0.026,0.145-0.04,0.272-0.04h0.704
					c0.096,0,0.179,0.027,0.248,0.08c0.069,0.054,0.104,0.123,0.104,0.208c0,0.235-0.144,0.518-0.432,0.849
					c-0.288,0.33-0.696,0.615-1.225,0.855c-0.527,0.24-1.133,0.36-1.815,0.36C411.876,650.938,411.006,650.6,410.355,649.922z
					 M415.204,646.026v-0.048c0-0.747-0.203-1.354-0.608-1.824c-0.405-0.469-0.949-0.704-1.632-0.704
					c-0.693,0-1.237,0.235-1.632,0.704c-0.395,0.47-0.592,1.077-0.592,1.824v0.048H415.204z"/>
				<path fill="#1B7FFF" d="M419.3,649.922c-0.65-0.677-1.008-1.603-1.071-2.775l-0.017-0.544l0.017-0.528
					c0.063-1.152,0.421-2.069,1.071-2.752s1.521-1.024,2.608-1.024c1.173,0,2.082,0.374,2.728,1.12
					c0.646,0.747,0.969,1.761,0.969,3.04v0.288c0,0.107-0.035,0.195-0.104,0.265s-0.157,0.104-0.264,0.104h-5.552v0.145
					c0.031,0.693,0.245,1.285,0.64,1.775c0.395,0.491,0.917,0.736,1.568,0.736c0.501,0,0.909-0.099,1.224-0.296
					s0.552-0.402,0.712-0.616c0.096-0.128,0.171-0.205,0.224-0.232c0.054-0.026,0.145-0.04,0.272-0.04h0.704
					c0.096,0,0.179,0.027,0.248,0.08c0.069,0.054,0.104,0.123,0.104,0.208c0,0.235-0.144,0.518-0.432,0.849
					c-0.288,0.33-0.696,0.615-1.225,0.855c-0.527,0.24-1.133,0.36-1.815,0.36C420.82,650.938,419.95,650.6,419.3,649.922z
					 M424.148,646.026v-0.048c0-0.747-0.203-1.354-0.608-1.824c-0.405-0.469-0.949-0.704-1.632-0.704
					c-0.693,0-1.237,0.235-1.632,0.704c-0.395,0.47-0.592,1.077-0.592,1.824v0.048H424.148z"/>
				<path fill="#1B7FFF" d="M427.659,650.675c-0.069-0.069-0.104-0.158-0.104-0.265v-7.584c0-0.106,0.034-0.194,0.104-0.264
					s0.157-0.104,0.265-0.104h0.688c0.117,0,0.208,0.032,0.272,0.097c0.063,0.063,0.096,0.154,0.096,0.271v0.704
					c0.32-0.395,0.69-0.698,1.112-0.912c0.421-0.213,0.946-0.32,1.575-0.32c1.024,0,1.819,0.328,2.385,0.984s0.848,1.522,0.848,2.6
					v4.528c0,0.106-0.035,0.195-0.104,0.265c-0.07,0.069-0.158,0.104-0.265,0.104h-0.735c-0.107,0-0.195-0.034-0.265-0.104
					s-0.104-0.158-0.104-0.265v-4.432c0-0.769-0.188-1.365-0.561-1.792s-0.906-0.641-1.6-0.641c-0.683,0-1.227,0.217-1.632,0.648
					c-0.406,0.432-0.608,1.026-0.608,1.784v4.432c0,0.106-0.034,0.195-0.104,0.265c-0.07,0.069-0.158,0.104-0.265,0.104h-0.735
					C427.816,650.778,427.729,650.744,427.659,650.675z"/>
			</g>
		</g>
	</g>
	<g id="MTEXT_39_">
		<g>
			<g>
				<path fill="#1B7FFF" d="M123.002,681.739c-0.741-0.773-1.139-1.832-1.192-3.176c-0.011-0.288-0.016-0.758-0.016-1.408
					c0-0.661,0.005-1.142,0.016-1.44c0.054-1.344,0.451-2.402,1.192-3.176s1.821-1.16,3.24-1.16c0.949,0,1.754,0.168,2.416,0.504
					c0.661,0.337,1.16,0.776,1.496,1.32s0.52,1.126,0.552,1.744c0,0.096-0.035,0.174-0.104,0.232s-0.151,0.088-0.248,0.088h-0.8
					c-0.106,0-0.191-0.026-0.256-0.08c-0.063-0.054-0.112-0.145-0.144-0.272c-0.182-0.821-0.51-1.397-0.984-1.728
					c-0.475-0.331-1.117-0.496-1.928-0.496c-1.856,0-2.821,1.034-2.896,3.104c-0.011,0.288-0.016,0.731-0.016,1.328
					c0,0.598,0.005,1.051,0.016,1.36c0.075,2.059,1.04,3.088,2.896,3.088c0.8,0,1.439-0.165,1.92-0.496
					c0.479-0.33,0.811-0.901,0.992-1.712c0.031-0.128,0.08-0.219,0.144-0.272c0.064-0.053,0.149-0.079,0.256-0.079h0.8
					c0.097,0,0.179,0.029,0.248,0.088s0.104,0.136,0.104,0.231c-0.032,0.619-0.216,1.2-0.552,1.744s-0.835,0.984-1.496,1.32
					c-0.662,0.336-1.467,0.504-2.416,0.504C124.823,682.899,123.743,682.513,123.002,681.739z"/>
				<path fill="#1B7FFF" d="M133.529,682.579c-0.442-0.213-0.794-0.504-1.056-0.872s-0.392-0.775-0.392-1.224
					c0-0.704,0.288-1.28,0.863-1.729c0.576-0.447,1.36-0.746,2.353-0.896l2.399-0.336v-0.464c0-1.099-0.635-1.648-1.903-1.648
					c-0.491,0-0.886,0.099-1.185,0.296s-0.518,0.43-0.655,0.696c-0.043,0.106-0.089,0.179-0.137,0.216
					c-0.048,0.038-0.114,0.056-0.2,0.056h-0.624c-0.096,0-0.179-0.034-0.247-0.104c-0.07-0.069-0.104-0.152-0.104-0.248
					c0-0.245,0.114-0.53,0.344-0.856c0.229-0.325,0.584-0.607,1.064-0.848c0.479-0.24,1.066-0.36,1.76-0.36
					c1.194,0,2.051,0.278,2.568,0.832c0.517,0.556,0.775,1.248,0.775,2.08v5.2c0,0.106-0.034,0.195-0.104,0.265
					s-0.157,0.104-0.265,0.104h-0.703c-0.107,0-0.192-0.034-0.257-0.104c-0.063-0.069-0.096-0.158-0.096-0.265v-0.704
					c-0.234,0.353-0.576,0.646-1.023,0.88c-0.448,0.235-1.024,0.353-1.729,0.353C134.455,682.899,133.972,682.793,133.529,682.579z
					 M137.025,681.043c0.448-0.458,0.672-1.125,0.672-2v-0.447l-1.872,0.271c-0.768,0.106-1.349,0.288-1.743,0.544
					c-0.396,0.256-0.593,0.576-0.593,0.96c0,0.438,0.179,0.773,0.536,1.008c0.357,0.235,0.781,0.353,1.272,0.353
					C136.002,681.731,136.577,681.502,137.025,681.043z"/>
				<path fill="#1B7FFF" d="M141.594,682.636c-0.069-0.069-0.104-0.158-0.104-0.265v-10.624c0-0.117,0.035-0.208,0.104-0.271
					c0.069-0.064,0.157-0.097,0.264-0.097h0.704c0.106,0,0.194,0.035,0.264,0.104s0.104,0.157,0.104,0.264v10.624
					c0,0.106-0.035,0.195-0.104,0.265s-0.157,0.104-0.264,0.104h-0.704C141.751,682.739,141.663,682.705,141.594,682.636z"/>
				<path fill="#1B7FFF" d="M145.306,672.747c-0.069-0.069-0.104-0.157-0.104-0.264v-0.832c0-0.106,0.034-0.197,0.104-0.272
					c0.069-0.074,0.157-0.111,0.265-0.111h0.943c0.106,0,0.197,0.037,0.272,0.111c0.074,0.075,0.111,0.166,0.111,0.272v0.832
					c0,0.106-0.037,0.194-0.111,0.264c-0.075,0.069-0.166,0.104-0.272,0.104h-0.943
					C145.463,672.852,145.375,672.816,145.306,672.747z M145.434,682.636c-0.069-0.069-0.104-0.158-0.104-0.265v-7.584
					c0-0.106,0.034-0.194,0.104-0.264s0.157-0.104,0.265-0.104h0.704c0.106,0,0.194,0.035,0.264,0.104s0.104,0.157,0.104,0.264
					v7.584c0,0.106-0.034,0.195-0.104,0.265s-0.157,0.104-0.264,0.104h-0.704C145.591,682.739,145.503,682.705,145.434,682.636z"/>
				<path fill="#1B7FFF" d="M150.105,682.636c-0.069-0.069-0.104-0.158-0.104-0.265v-6.72h-1.376c-0.107,0-0.195-0.032-0.265-0.096
					c-0.069-0.064-0.104-0.149-0.104-0.257v-0.512c0-0.106,0.034-0.194,0.104-0.264s0.157-0.104,0.265-0.104h1.376v-0.8
					c0-0.864,0.21-1.533,0.632-2.008c0.421-0.475,1.112-0.712,2.072-0.712h0.943c0.106,0,0.194,0.034,0.265,0.104
					c0.069,0.07,0.104,0.158,0.104,0.265v0.512c0,0.106-0.034,0.192-0.104,0.256c-0.07,0.064-0.158,0.096-0.265,0.096h-0.912
					c-0.49,0-0.832,0.128-1.023,0.385c-0.192,0.256-0.288,0.65-0.288,1.184v0.72h2.063c0.107,0,0.195,0.035,0.265,0.104
					s0.104,0.157,0.104,0.264v0.512c0,0.107-0.034,0.192-0.104,0.257c-0.069,0.063-0.157,0.096-0.265,0.096h-2.063v6.72
					c0,0.106-0.035,0.195-0.104,0.265s-0.157,0.104-0.264,0.104h-0.688C150.263,682.739,150.175,682.705,150.105,682.636z"/>
				<path fill="#1B7FFF" d="M155.786,681.907c-0.635-0.661-0.974-1.541-1.017-2.64l-0.016-0.688l0.016-0.688
					c0.043-1.099,0.387-1.979,1.032-2.641c0.646-0.661,1.544-0.992,2.696-0.992c1.151,0,2.051,0.331,2.696,0.992
					c0.645,0.662,0.989,1.542,1.031,2.641c0.021,0.234,0.032,0.464,0.032,0.688c0,0.225-0.011,0.454-0.032,0.688
					c-0.042,1.099-0.381,1.979-1.016,2.64s-1.539,0.992-2.712,0.992C157.324,682.899,156.42,682.568,155.786,681.907z
					 M160.122,681.051c0.399-0.432,0.616-1.053,0.647-1.863c0.011-0.106,0.017-0.31,0.017-0.608s-0.006-0.501-0.017-0.607
					c-0.031-0.811-0.248-1.433-0.647-1.864c-0.4-0.433-0.941-0.648-1.624-0.648s-1.225,0.216-1.624,0.648
					c-0.4,0.432-0.616,1.054-0.648,1.864l-0.016,0.607l0.016,0.608c0.032,0.811,0.248,1.432,0.648,1.863
					c0.399,0.433,0.941,0.648,1.624,0.648S159.722,681.483,160.122,681.051z"/>
				<path fill="#1B7FFF" d="M164.377,682.636c-0.069-0.069-0.104-0.158-0.104-0.265v-7.567c0-0.107,0.034-0.197,0.104-0.272
					c0.069-0.074,0.157-0.112,0.265-0.112h0.672c0.117,0,0.21,0.035,0.279,0.104s0.104,0.162,0.104,0.28v0.703
					c0.438-0.725,1.179-1.088,2.224-1.088h0.624c0.117,0,0.208,0.032,0.272,0.097c0.063,0.063,0.096,0.154,0.096,0.271v0.592
					c0,0.107-0.032,0.195-0.096,0.265c-0.064,0.069-0.155,0.104-0.272,0.104h-0.912c-0.586,0-1.048,0.171-1.384,0.512
					c-0.336,0.342-0.504,0.806-0.504,1.393v4.72c0,0.106-0.037,0.195-0.112,0.265c-0.074,0.069-0.165,0.104-0.271,0.104h-0.72
					C164.534,682.739,164.446,682.705,164.377,682.636z"/>
				<path fill="#1B7FFF" d="M170.393,682.636c-0.069-0.069-0.104-0.158-0.104-0.265v-7.584c0-0.106,0.034-0.194,0.104-0.264
					s0.157-0.104,0.265-0.104h0.688c0.117,0,0.208,0.032,0.272,0.097c0.063,0.063,0.096,0.154,0.096,0.271v0.704
					c0.32-0.395,0.69-0.698,1.112-0.912c0.421-0.213,0.946-0.32,1.575-0.32c1.024,0,1.819,0.328,2.385,0.984s0.848,1.522,0.848,2.6
					v4.528c0,0.106-0.035,0.195-0.104,0.265c-0.07,0.069-0.158,0.104-0.265,0.104h-0.735c-0.107,0-0.195-0.034-0.265-0.104
					s-0.104-0.158-0.104-0.265v-4.432c0-0.769-0.188-1.365-0.561-1.792s-0.906-0.641-1.6-0.641c-0.683,0-1.227,0.217-1.632,0.648
					c-0.406,0.432-0.608,1.026-0.608,1.784v4.432c0,0.106-0.034,0.195-0.104,0.265c-0.07,0.069-0.158,0.104-0.265,0.104h-0.735
					C170.55,682.739,170.462,682.705,170.393,682.636z"/>
				<path fill="#1B7FFF" d="M179.929,672.747c-0.069-0.069-0.104-0.157-0.104-0.264v-0.832c0-0.106,0.034-0.197,0.104-0.272
					c0.069-0.074,0.157-0.111,0.265-0.111h0.943c0.106,0,0.197,0.037,0.272,0.111c0.074,0.075,0.111,0.166,0.111,0.272v0.832
					c0,0.106-0.037,0.194-0.111,0.264c-0.075,0.069-0.166,0.104-0.272,0.104h-0.943
					C180.086,672.852,179.998,672.816,179.929,672.747z M180.057,682.636c-0.069-0.069-0.104-0.158-0.104-0.265v-7.584
					c0-0.106,0.034-0.194,0.104-0.264s0.157-0.104,0.265-0.104h0.704c0.106,0,0.194,0.035,0.264,0.104s0.104,0.157,0.104,0.264
					v7.584c0,0.106-0.034,0.195-0.104,0.265s-0.157,0.104-0.264,0.104h-0.704C180.214,682.739,180.126,682.705,180.057,682.636z"/>
				<path fill="#1B7FFF" d="M184.648,682.579c-0.442-0.213-0.794-0.504-1.056-0.872s-0.392-0.775-0.392-1.224
					c0-0.704,0.288-1.28,0.863-1.729c0.576-0.447,1.36-0.746,2.353-0.896l2.399-0.336v-0.464c0-1.099-0.635-1.648-1.903-1.648
					c-0.491,0-0.886,0.099-1.185,0.296s-0.518,0.43-0.655,0.696c-0.043,0.106-0.089,0.179-0.137,0.216
					c-0.048,0.038-0.114,0.056-0.2,0.056h-0.624c-0.096,0-0.179-0.034-0.247-0.104c-0.07-0.069-0.104-0.152-0.104-0.248
					c0-0.245,0.114-0.53,0.344-0.856c0.229-0.325,0.584-0.607,1.064-0.848c0.479-0.24,1.066-0.36,1.76-0.36
					c1.194,0,2.051,0.278,2.568,0.832c0.517,0.556,0.775,1.248,0.775,2.08v5.2c0,0.106-0.034,0.195-0.104,0.265
					s-0.157,0.104-0.265,0.104h-0.703c-0.107,0-0.192-0.034-0.257-0.104c-0.063-0.069-0.096-0.158-0.096-0.265v-0.704
					c-0.234,0.353-0.576,0.646-1.023,0.88c-0.448,0.235-1.024,0.353-1.729,0.353C185.574,682.899,185.091,682.793,184.648,682.579z
					 M188.145,681.043c0.448-0.458,0.672-1.125,0.672-2v-0.447l-1.872,0.271c-0.768,0.106-1.349,0.288-1.743,0.544
					c-0.396,0.256-0.593,0.576-0.593,0.96c0,0.438,0.179,0.773,0.536,1.008c0.357,0.235,0.781,0.353,1.272,0.353
					C187.121,681.731,187.696,681.502,188.145,681.043z"/>
				<path fill="#1B7FFF" d="M196.832,682.636c-0.063-0.069-0.096-0.158-0.096-0.265v-10.448c0-0.117,0.032-0.21,0.096-0.279
					c0.064-0.069,0.149-0.104,0.256-0.104h0.752c0.117,0,0.211,0.035,0.28,0.104s0.104,0.162,0.104,0.279v3.984l4.336-4.112
					c0.17-0.17,0.378-0.256,0.624-0.256h0.8c0.085,0,0.16,0.032,0.224,0.097c0.064,0.063,0.096,0.139,0.096,0.224
					s-0.026,0.154-0.079,0.208l-4.992,4.832l5.328,5.296c0.053,0.063,0.079,0.139,0.079,0.224c0,0.086-0.031,0.16-0.096,0.225
					c-0.063,0.063-0.139,0.096-0.224,0.096h-0.832c-0.149,0-0.267-0.024-0.353-0.072c-0.085-0.048-0.176-0.109-0.271-0.184
					l-4.64-4.528v4.416c0,0.106-0.038,0.195-0.112,0.265c-0.075,0.069-0.166,0.104-0.272,0.104h-0.752
					C196.981,682.739,196.896,682.705,196.832,682.636z"/>
				<path fill="#1B7FFF" d="M206.072,672.747c-0.069-0.069-0.104-0.157-0.104-0.264v-0.832c0-0.106,0.034-0.197,0.104-0.272
					c0.069-0.074,0.157-0.111,0.265-0.111h0.943c0.106,0,0.197,0.037,0.272,0.111c0.074,0.075,0.111,0.166,0.111,0.272v0.832
					c0,0.106-0.037,0.194-0.111,0.264c-0.075,0.069-0.166,0.104-0.272,0.104h-0.943
					C206.229,672.852,206.142,672.816,206.072,672.747z M206.2,682.636c-0.069-0.069-0.104-0.158-0.104-0.265v-7.584
					c0-0.106,0.034-0.194,0.104-0.264s0.157-0.104,0.265-0.104h0.704c0.106,0,0.194,0.035,0.264,0.104s0.104,0.157,0.104,0.264
					v7.584c0,0.106-0.034,0.195-0.104,0.265s-0.157,0.104-0.264,0.104h-0.704C206.357,682.739,206.27,682.705,206.2,682.636z"/>
				<path fill="#1B7FFF" d="M210.04,682.636c-0.069-0.069-0.104-0.158-0.104-0.265v-7.584c0-0.106,0.034-0.194,0.104-0.264
					s0.157-0.104,0.265-0.104h0.688c0.117,0,0.208,0.032,0.272,0.097c0.063,0.063,0.096,0.154,0.096,0.271v0.704
					c0.32-0.395,0.69-0.698,1.112-0.912c0.421-0.213,0.946-0.32,1.575-0.32c1.024,0,1.819,0.328,2.385,0.984s0.848,1.522,0.848,2.6
					v4.528c0,0.106-0.035,0.195-0.104,0.265c-0.07,0.069-0.158,0.104-0.265,0.104h-0.735c-0.107,0-0.195-0.034-0.265-0.104
					s-0.104-0.158-0.104-0.265v-4.432c0-0.769-0.188-1.365-0.561-1.792s-0.906-0.641-1.6-0.641c-0.683,0-1.227,0.217-1.632,0.648
					c-0.406,0.432-0.608,1.026-0.608,1.784v4.432c0,0.106-0.034,0.195-0.104,0.265c-0.07,0.069-0.158,0.104-0.265,0.104h-0.735
					C210.197,682.739,210.109,682.705,210.04,682.636z"/>
				<path fill="#1B7FFF" d="M220.849,685.811c-0.534-0.299-0.91-0.641-1.128-1.024c-0.219-0.384-0.328-0.715-0.328-0.992
					c0-0.096,0.037-0.179,0.111-0.248c0.075-0.069,0.16-0.104,0.257-0.104h0.704c0.096,0,0.176,0.023,0.239,0.072
					c0.064,0.048,0.117,0.136,0.16,0.264c0.299,0.854,0.977,1.28,2.032,1.28c0.8,0,1.392-0.171,1.776-0.513
					c0.384-0.341,0.575-0.943,0.575-1.808v-1.104c-0.618,0.789-1.482,1.184-2.592,1.184c-1.131,0-1.976-0.362-2.536-1.088
					c-0.56-0.726-0.855-1.643-0.888-2.752l-0.016-0.448l0.016-0.432c0.032-1.099,0.328-2.014,0.888-2.744
					c0.561-0.73,1.405-1.097,2.536-1.097c1.12,0,1.995,0.411,2.624,1.232v-0.688c0-0.107,0.034-0.197,0.104-0.272
					c0.069-0.074,0.157-0.112,0.264-0.112h0.688c0.107,0,0.195,0.038,0.265,0.112c0.069,0.075,0.104,0.165,0.104,0.272v7.76
					c0,2.464-1.242,3.695-3.728,3.695C222.091,686.259,221.382,686.109,220.849,685.811z M224.633,680.843
					c0.378-0.484,0.584-1.068,0.615-1.752c0.011-0.096,0.017-0.282,0.017-0.56c0-0.267-0.006-0.448-0.017-0.544
					c-0.031-0.683-0.237-1.267-0.615-1.752c-0.379-0.485-0.942-0.729-1.688-0.729c-0.768,0-1.325,0.243-1.672,0.729
					s-0.536,1.112-0.568,1.88l-0.016,0.416l0.016,0.432c0.032,0.769,0.222,1.396,0.568,1.88c0.347,0.486,0.904,0.729,1.672,0.729
					C223.69,681.571,224.254,681.329,224.633,680.843z"/>
			</g>
		</g>
	</g>
	<g id="MTEXT_38_">
		<g>
			<g>
				<path fill="#1B7FFF" d="M550.744,650.675c-0.063-0.069-0.096-0.158-0.096-0.265v-10.448c0-0.117,0.032-0.21,0.096-0.279
					c0.064-0.069,0.149-0.104,0.256-0.104h0.752c0.117,0,0.211,0.035,0.28,0.104s0.104,0.162,0.104,0.279v3.984l4.336-4.112
					c0.17-0.17,0.378-0.256,0.624-0.256h0.8c0.085,0,0.16,0.032,0.224,0.097c0.064,0.063,0.096,0.139,0.096,0.224
					s-0.026,0.154-0.079,0.208l-4.992,4.832l5.328,5.296c0.053,0.063,0.079,0.139,0.079,0.224c0,0.086-0.031,0.16-0.096,0.225
					c-0.063,0.063-0.139,0.096-0.224,0.096H557.4c-0.149,0-0.267-0.024-0.353-0.072c-0.085-0.048-0.176-0.109-0.271-0.184
					l-4.64-4.528v4.416c0,0.106-0.038,0.195-0.112,0.265c-0.075,0.069-0.166,0.104-0.272,0.104H551
					C550.894,650.778,550.809,650.744,550.744,650.675z"/>
				<path fill="#1B7FFF" d="M559.984,640.786c-0.069-0.069-0.104-0.157-0.104-0.264v-0.832c0-0.106,0.034-0.197,0.104-0.272
					c0.069-0.074,0.157-0.111,0.265-0.111h0.943c0.106,0,0.197,0.037,0.272,0.111c0.074,0.075,0.111,0.166,0.111,0.272v0.832
					c0,0.106-0.037,0.194-0.111,0.264c-0.075,0.069-0.166,0.104-0.272,0.104h-0.943
					C560.142,640.891,560.054,640.855,559.984,640.786z M560.112,650.675c-0.069-0.069-0.104-0.158-0.104-0.265v-7.584
					c0-0.106,0.034-0.194,0.104-0.264s0.157-0.104,0.265-0.104h0.704c0.106,0,0.194,0.035,0.264,0.104s0.104,0.157,0.104,0.264
					v7.584c0,0.106-0.034,0.195-0.104,0.265s-0.157,0.104-0.264,0.104h-0.704C560.27,650.778,560.182,650.744,560.112,650.675z"/>
				<path fill="#1B7FFF" d="M563.952,650.675c-0.069-0.069-0.104-0.158-0.104-0.265v-7.584c0-0.106,0.034-0.194,0.104-0.264
					s0.157-0.104,0.265-0.104h0.688c0.117,0,0.208,0.032,0.272,0.097c0.063,0.063,0.096,0.154,0.096,0.271v0.704
					c0.32-0.395,0.69-0.698,1.112-0.912c0.421-0.213,0.946-0.32,1.575-0.32c1.024,0,1.819,0.328,2.385,0.984s0.848,1.522,0.848,2.6
					v4.528c0,0.106-0.035,0.195-0.104,0.265c-0.07,0.069-0.158,0.104-0.265,0.104h-0.735c-0.107,0-0.195-0.034-0.265-0.104
					s-0.104-0.158-0.104-0.265v-4.432c0-0.769-0.188-1.365-0.561-1.792s-0.906-0.641-1.6-0.641c-0.683,0-1.227,0.217-1.632,0.648
					c-0.406,0.432-0.608,1.026-0.608,1.784v4.432c0,0.106-0.034,0.195-0.104,0.265c-0.07,0.069-0.158,0.104-0.265,0.104h-0.735
					C564.109,650.778,564.021,650.744,563.952,650.675z"/>
				<path fill="#1B7FFF" d="M574.76,653.851c-0.534-0.299-0.91-0.641-1.128-1.024c-0.219-0.384-0.328-0.715-0.328-0.992
					c0-0.096,0.037-0.179,0.111-0.248c0.075-0.069,0.16-0.104,0.257-0.104h0.704c0.096,0,0.176,0.023,0.239,0.072
					c0.064,0.048,0.117,0.136,0.16,0.264c0.299,0.854,0.977,1.28,2.032,1.28c0.8,0,1.392-0.171,1.776-0.513
					c0.384-0.341,0.575-0.943,0.575-1.808v-1.104c-0.618,0.789-1.482,1.184-2.592,1.184c-1.131,0-1.976-0.362-2.536-1.088
					c-0.56-0.726-0.855-1.643-0.888-2.752l-0.016-0.448l0.016-0.432c0.032-1.099,0.328-2.014,0.888-2.744
					c0.561-0.73,1.405-1.097,2.536-1.097c1.12,0,1.995,0.411,2.624,1.232v-0.688c0-0.107,0.034-0.197,0.104-0.272
					c0.069-0.074,0.157-0.112,0.264-0.112h0.688c0.107,0,0.195,0.038,0.265,0.112c0.069,0.075,0.104,0.165,0.104,0.272v7.76
					c0,2.464-1.242,3.695-3.728,3.695C576.002,654.298,575.293,654.148,574.76,653.851z M578.544,648.882
					c0.378-0.484,0.584-1.068,0.615-1.752c0.011-0.096,0.017-0.282,0.017-0.56c0-0.267-0.006-0.448-0.017-0.544
					c-0.031-0.683-0.237-1.267-0.615-1.752c-0.379-0.485-0.942-0.729-1.688-0.729c-0.768,0-1.325,0.243-1.672,0.729
					s-0.536,1.112-0.568,1.88l-0.016,0.416l0.016,0.432c0.032,0.769,0.222,1.396,0.568,1.88c0.347,0.486,0.904,0.729,1.672,0.729
					C577.602,649.61,578.165,649.368,578.544,648.882z"/>
			</g>
		</g>
	</g>
</g>
<g id="AG-DIAGRAM_1_">
	<g id="SPLINE_755_">
		<g>
			
				<path fill="none" stroke="#1B7FFF" stroke-width="1.5" stroke-linecap="round" stroke-linejoin="round" stroke-dasharray="3.0027,5.0045" d="
				M103.803,104.308c0-9.527,4.764-14.291,14.291-14.291c80.989,0,161.978,0,242.967,0c9.527,0,14.297,4.764,14.297,14.291
				c0,169.117,0,338.245,0,507.374c0,9.527-4.77,14.291-14.297,14.291c-80.989,0-161.977,0-242.967,0
				c-9.527,0-14.291-4.764-14.291-14.291C103.803,442.553,103.803,273.425,103.803,104.308z"/>
		</g>
	</g>
	<g id="SPLINE_754_">
		<g>
			
				<path fill="none" stroke="#1B7FFF" stroke-width="1.5" stroke-linecap="round" stroke-linejoin="round" stroke-dasharray="3.005,5.0084" d="
				M103.803,104.308c0-9.527,4.764-14.291,14.291-14.291c133.396,0,266.791,0,400.18,0c9.533,0,14.297,4.764,14.297,14.291
				c0,181.032,0,362.064,0,543.096c0,9.527-4.764,14.303-14.297,14.303c-133.389,0-266.784,0-400.18,0
				c-9.527,0-14.291-4.775-14.291-14.303C103.803,466.371,103.803,285.34,103.803,104.308z"/>
		</g>
	</g>
	<g id="SPLINE_753_">
		<g>
			
				<path fill="none" stroke="#1B7FFF" stroke-width="1.5" stroke-linecap="round" stroke-linejoin="round" stroke-dasharray="3,5" d="
				M103.803,104.308c0-9.527,4.764-14.291,14.291-14.291c171.506,0,343.016,0,514.52,0c9.527,0,14.291,4.764,14.291,14.291
				c0,181.032,0,362.064,0,543.096c0,9.527-4.764,14.303-14.291,14.303c-171.504,0-343.014,0-514.52,0
				c-9.527,0-14.291-4.775-14.291-14.303C103.803,466.371,103.803,285.34,103.803,104.308z"/>
		</g>
	</g>
	<g id="SPLINE_752_">
		<g>
			
				<path fill="none" stroke="#1B7FFF" stroke-width="1.5" stroke-linecap="round" stroke-linejoin="round" stroke-dasharray="3,5" d="
				M103.803,104.308c0-9.527,4.764-14.291,14.291-14.291c161.978,0,323.955,0,485.938,0c9.527,0,14.291,4.764,14.291,14.291
				c0,190.56,0,381.118,0,571.689c0,9.527-4.764,14.291-14.291,14.291c-161.982,0-323.96,0-485.938,0
				c-9.527,0-14.291-4.764-14.291-14.291C103.803,485.426,103.803,294.867,103.803,104.308z"/>
		</g>
	</g>
	<g id="SPLINE_751_">
		<g>
			
				<path fill="none" stroke="#1B7FFF" stroke-width="1.5" stroke-linecap="round" stroke-linejoin="round" stroke-dasharray="3.0016,5.0027" d="
				M103.803,104.308c0-9.527,4.764-14.291,14.291-14.291c80.989,0,161.978,0,242.967,0c9.527,0,14.297,4.764,14.297,14.291
				c0,181.032,0,362.064,0,543.096c0,9.527-4.77,14.303-14.297,14.303c-80.989,0-161.977,0-242.967,0
				c-9.527,0-14.291-4.775-14.291-14.303C103.803,466.371,103.803,285.34,103.803,104.308z"/>
		</g>
	</g>
	<g id="POLYLINE_270_">
		<g>
			
				<polygon fill="none" stroke="#1B7FFF" stroke-width="1.5" stroke-linecap="round" stroke-linejoin="round" stroke-dasharray="3.0081,5.0135" points="
				103.809,104.296 103.809,104.138 103.814,103.979 103.814,103.821 103.826,103.662 103.832,103.504 103.843,103.334 
				103.853,103.176 103.865,103.018 103.883,102.848 103.899,102.689 103.916,102.52 103.939,102.361 103.962,102.191 
				103.99,102.033 104.018,101.863 104.047,101.693 104.08,101.535 104.114,101.365 104.148,101.195 104.187,101.037 
				104.227,100.867 104.268,100.698 104.312,100.528 104.357,100.37 104.408,100.2 104.459,100.03 104.51,99.872 104.566,99.702 
				104.623,99.532 104.685,99.374 104.748,99.204 104.81,99.034 104.879,98.876 104.946,98.706 105.019,98.548 105.094,98.378 
				105.167,98.22 105.24,98.062 105.325,97.892 105.404,97.733 105.489,97.575 105.574,97.416 105.664,97.258 105.756,97.1 
				105.846,96.941 105.941,96.794 106.038,96.636 106.135,96.478 106.236,96.33 106.344,96.172 106.445,96.024 106.553,95.878 
				106.666,95.73 106.773,95.583 106.887,95.437 107.006,95.289 107.119,95.153 107.237,95.006 107.361,94.87 107.48,94.734 
				107.605,94.599 107.735,94.463 107.865,94.327 107.99,94.191 108.125,94.067 108.256,93.942 108.392,93.807 108.527,93.683 
				108.669,93.569 108.805,93.444 108.945,93.32 109.088,93.207 109.234,93.094 109.382,92.98 109.529,92.868 109.676,92.755 
				109.822,92.652 109.971,92.54 110.123,92.438 110.275,92.336 110.428,92.245 110.587,92.144 110.739,92.053 110.898,91.963 
				111.057,91.872 111.215,91.781 111.373,91.691 111.531,91.611 111.695,91.521 111.853,91.442 112.018,91.374 112.182,91.295 
				112.346,91.216 112.505,91.147 112.669,91.08 112.833,91.012 113.002,90.955 113.166,90.888 113.33,90.831 113.5,90.774 
				113.664,90.718 113.828,90.661 113.998,90.616 114.162,90.56 114.332,90.515 114.496,90.469 114.666,90.435 114.83,90.39 
				114.994,90.355 115.164,90.311 115.328,90.288 115.492,90.254 115.662,90.22 115.826,90.197 115.99,90.163 116.154,90.141 
				116.318,90.118 116.482,90.106 116.646,90.084 116.81,90.073 116.975,90.062 117.133,90.039 117.297,90.039 117.455,90.027 
				117.619,90.017 117.777,90.017 117.935,90.017 118.094,90.017 303.81,90.017 303.969,90.017 304.127,90.017 304.286,90.017 
				304.444,90.027 304.603,90.039 304.768,90.039 304.932,90.062 305.09,90.073 305.254,90.084 305.418,90.106 305.582,90.118 
				305.746,90.141 305.91,90.163 306.074,90.197 306.244,90.22 306.408,90.254 306.572,90.288 306.742,90.311 306.906,90.355 
				307.07,90.39 307.239,90.435 307.403,90.469 307.573,90.515 307.737,90.56 307.906,90.616 308.07,90.661 308.234,90.718 
				308.404,90.774 308.568,90.831 308.732,90.888 308.902,90.955 309.066,91.012 309.23,91.08 309.394,91.147 309.559,91.216 
				309.723,91.295 309.887,91.374 310.045,91.442 310.209,91.521 310.368,91.611 310.532,91.691 310.69,91.781 310.85,91.872 
				311.008,91.963 311.16,92.053 311.318,92.144 311.471,92.245 311.624,92.336 311.777,92.438 311.93,92.54 312.082,92.652 
				312.229,92.755 312.377,92.868 312.523,92.98 312.67,93.094 312.812,93.207 312.953,93.32 313.095,93.444 313.236,93.569 
				313.372,93.683 313.508,93.807 313.643,93.942 313.779,94.067 313.91,94.191 314.039,94.327 314.17,94.463 314.295,94.599 
				314.419,94.734 314.543,94.87 314.662,95.006 314.781,95.153 314.9,95.289 315.013,95.437 315.126,95.583 315.239,95.73 
				315.347,95.878 315.454,96.024 315.561,96.172 315.664,96.33 315.766,96.478 315.861,96.636 315.963,96.794 316.054,96.941 
				316.15,97.1 316.24,97.258 316.326,97.416 316.416,97.575 316.495,97.733 316.58,97.892 316.659,98.062 316.738,98.22 
				316.812,98.378 316.886,98.548 316.953,98.706 317.027,98.876 317.09,99.034 317.157,99.204 317.219,99.374 317.275,99.532 
				317.332,99.702 317.389,99.872 317.439,100.03 317.49,100.2 317.542,100.37 317.587,100.528 317.633,100.698 317.678,100.867 
				317.717,101.037 317.751,101.195 317.791,101.365 317.824,101.535 317.853,101.693 317.887,101.863 317.91,102.033 
				317.937,102.191 317.961,102.361 317.982,102.52 318,102.689 318.023,102.848 318.034,103.018 318.051,103.176 318.062,103.334 
				318.074,103.504 318.079,103.662 318.085,103.821 318.091,103.979 318.091,104.138 318.091,104.296 318.091,611.682 
				318.091,611.84 318.091,611.998 318.085,612.156 318.079,612.326 318.074,612.484 318.062,612.643 318.051,612.802 
				318.034,612.971 318.023,613.13 318,613.299 317.982,613.458 317.961,613.627 317.937,613.786 317.91,613.955 317.887,614.114 
				317.853,614.283 317.824,614.453 317.791,614.611 317.751,614.781 317.717,614.951 317.678,615.109 317.633,615.279 
				317.587,615.449 317.542,615.619 317.49,615.777 317.439,615.947 317.389,616.117 317.332,616.275 317.275,616.445 
				317.219,616.614 317.157,616.773 317.09,616.942 317.027,617.112 316.953,617.271 316.886,617.44 316.812,617.599 
				316.738,617.758 316.659,617.927 316.58,618.086 316.495,618.244 316.416,618.402 316.326,618.56 316.24,618.719 316.15,618.878 
				316.054,619.036 315.963,619.194 315.861,619.353 315.766,619.5 315.664,619.658 315.561,619.806 315.454,619.952 315.347,620.1 
				315.239,620.258 315.126,620.393 315.013,620.541 314.9,620.688 314.781,620.835 314.662,620.971 314.543,621.106 
				314.419,621.254 314.295,621.39 314.17,621.525 314.039,621.649 313.91,621.786 313.779,621.91 313.643,622.046 313.508,622.17 
				313.372,622.295 313.236,622.419 313.095,622.544 312.953,622.657 312.812,622.771 312.67,622.895 312.523,623.008 
				312.377,623.109 312.229,623.223 312.082,623.336 311.93,623.438 311.777,623.539 311.624,623.642 311.471,623.743 
				311.318,623.834 311.16,623.935 311.008,624.026 310.85,624.116 310.69,624.207 310.532,624.286 310.368,624.377 
				310.209,624.456 310.045,624.535 309.887,624.614 309.723,624.683 309.559,624.762 309.394,624.829 309.23,624.897 
				309.066,624.965 308.902,625.033 308.732,625.09 308.568,625.157 308.404,625.214 308.234,625.271 308.07,625.316 
				307.906,625.373 307.737,625.418 307.573,625.463 307.403,625.509 307.239,625.554 307.07,625.588 306.906,625.633 
				306.742,625.667 306.572,625.701 306.408,625.734 306.244,625.757 306.074,625.791 305.91,625.813 305.746,625.837 
				305.582,625.859 305.418,625.882 305.254,625.893 305.09,625.916 304.932,625.927 304.768,625.938 304.603,625.949 
				304.444,625.961 304.286,625.961 304.127,625.961 303.969,625.973 303.81,625.973 118.094,625.973 117.935,625.973 
				117.777,625.961 117.619,625.961 117.455,625.961 117.297,625.949 117.133,625.938 116.975,625.927 116.81,625.916 
				116.646,625.893 116.482,625.882 116.318,625.859 116.154,625.837 115.99,625.813 115.826,625.791 115.662,625.757 
				115.492,625.734 115.328,625.701 115.164,625.667 114.994,625.633 114.83,625.588 114.666,625.554 114.496,625.509 
				114.332,625.463 114.162,625.418 113.998,625.373 113.828,625.316 113.664,625.271 113.5,625.214 113.33,625.157 113.166,625.09 
				113.002,625.033 112.833,624.965 112.669,624.897 112.505,624.829 112.346,624.762 112.182,624.683 112.018,624.614 
				111.853,624.535 111.695,624.456 111.531,624.377 111.373,624.286 111.215,624.207 111.057,624.116 110.898,624.026 
				110.739,623.935 110.587,623.834 110.428,623.743 110.275,623.642 110.123,623.539 109.971,623.438 109.822,623.336 
				109.676,623.223 109.529,623.109 109.382,623.008 109.234,622.895 109.088,622.771 108.945,622.657 108.805,622.544 
				108.669,622.419 108.527,622.295 108.392,622.17 108.256,622.046 108.125,621.91 107.99,621.786 107.865,621.649 
				107.735,621.525 107.605,621.39 107.48,621.254 107.361,621.106 107.237,620.971 107.119,620.835 107.006,620.688 
				106.887,620.541 106.773,620.393 106.666,620.258 106.553,620.1 106.445,619.952 106.344,619.806 106.236,619.658 106.135,619.5 
				106.038,619.353 105.941,619.194 105.846,619.036 105.756,618.878 105.664,618.719 105.574,618.56 105.489,618.402 
				105.404,618.244 105.325,618.086 105.24,617.927 105.167,617.758 105.094,617.599 105.019,617.44 104.946,617.271 
				104.879,617.112 104.81,616.942 104.748,616.773 104.685,616.614 104.623,616.445 104.566,616.275 104.51,616.117 
				104.459,615.947 104.408,615.777 104.357,615.619 104.312,615.449 104.268,615.279 104.227,615.109 104.187,614.951 
				104.148,614.781 104.114,614.611 104.08,614.453 104.047,614.283 104.018,614.114 103.99,613.955 103.962,613.786 
				103.939,613.627 103.916,613.458 103.899,613.299 103.883,613.13 103.865,612.971 103.853,612.802 103.843,612.643 
				103.832,612.484 103.826,612.326 103.814,612.156 103.814,611.998 103.809,611.84 103.809,611.682 			"/>
		</g>
	</g>
</g>
<g id="AG-PEOPLE">
</g>
<g id="AG-FURNITURE">
</g>
<g id="AG-OUTLINE">
	<g id="SPLINE_44_">
		
			<path fill="none" stroke="#1B7FFF" stroke-width="3.5" stroke-linecap="round" stroke-linejoin="round" stroke-miterlimit="10" d="
			M103.803,104.308c0-9.527,4.764-14.291,14.291-14.291c119.104,0,238.203,0,357.307,0c9.527,0,14.291,4.764,14.291,14.291
			c0,169.117,0,338.245,0,507.374c0,9.527-4.764,14.291-14.291,14.291c-119.104,0-238.202,0-357.307,0
			c-9.527,0-14.291-4.764-14.291-14.291C103.803,442.553,103.803,273.425,103.803,104.308z"/>
	</g>
	<g id="POLYLINE_189_">
		
			<polygon fill="none" stroke="#1B7FFF" stroke-width="3.5" stroke-linecap="round" stroke-linejoin="round" stroke-miterlimit="10" points="
			130.677,109.897 130.598,109.897 130.518,109.897 130.439,109.908 130.359,109.908 130.275,109.908 130.195,109.92 
			130.117,109.92 130.031,109.931 129.953,109.942 129.873,109.942 129.789,109.954 129.703,109.965 129.625,109.977 
			129.539,109.987 129.461,109.999 129.375,110.021 129.297,110.033 129.211,110.056 129.127,110.066 129.042,110.09 
			128.963,110.112 128.878,110.135 128.793,110.157 128.708,110.18 128.629,110.203 128.544,110.226 128.459,110.248 
			128.38,110.282 128.295,110.305 128.21,110.339 128.131,110.372 128.046,110.406 127.961,110.44 127.882,110.475 127.803,110.508 
			127.718,110.542 127.639,110.576 127.554,110.621 127.475,110.655 127.395,110.7 127.316,110.734 127.237,110.779 
			127.158,110.825 127.078,110.87 127,110.915 126.92,110.961 126.841,111.018 126.768,111.062 126.693,111.119 126.615,111.164 
			126.541,111.221 126.468,111.277 126.394,111.323 126.32,111.38 126.247,111.436 126.174,111.492 126.105,111.561 
			126.032,111.617 125.964,111.674 125.891,111.741 125.822,111.798 125.755,111.866 125.692,111.923 125.625,111.99 
			125.562,112.059 125.494,112.126 125.432,112.194 125.37,112.262 125.308,112.33 125.246,112.397 125.189,112.466 
			125.133,112.545 125.076,112.612 125.019,112.681 124.963,112.76 124.906,112.828 124.85,112.907 124.799,112.986 
			124.748,113.054 124.697,113.133 124.646,113.213 124.601,113.292 124.55,113.371 124.504,113.45 124.459,113.518 
			124.414,113.598 124.375,113.688 124.329,113.767 124.289,113.846 124.25,113.926 124.211,114.005 124.176,114.084 
			124.137,114.163 124.102,114.254 124.068,114.333 124.035,114.412 124.001,114.491 123.973,114.582 123.944,114.661 
			123.91,114.74 123.888,114.83 123.859,114.91 123.831,114.989 123.809,115.079 123.786,115.159 123.764,115.249 123.74,115.328 
			123.724,115.407 123.701,115.498 123.684,115.577 123.667,115.656 123.65,115.747 123.639,115.826 123.622,115.905 
			123.61,115.996 123.6,116.075 123.588,116.154 123.576,116.233 123.57,116.324 123.56,116.403 123.555,116.482 123.549,116.562 
			123.543,116.641 123.543,116.72 123.537,116.8 123.537,116.89 123.531,116.969 123.531,117.048 123.531,217.041 123.531,217.12 
			123.537,217.199 123.537,217.278 123.543,217.357 123.543,217.437 123.549,217.527 123.555,217.606 123.56,217.686 
			123.57,217.765 123.576,217.844 123.588,217.935 123.6,218.014 123.61,218.093 123.622,218.172 123.639,218.263 123.65,218.342 
			123.667,218.421 123.684,218.512 123.701,218.591 123.724,218.67 123.74,218.761 123.764,218.84 123.786,218.919 123.809,219.01 
			123.831,219.089 123.859,219.18 123.888,219.259 123.91,219.338 123.944,219.429 123.973,219.508 124.001,219.587 
			124.035,219.677 124.068,219.757 124.102,219.836 124.137,219.915 124.176,220.006 124.211,220.085 124.25,220.164 
			124.289,220.243 124.329,220.322 124.375,220.401 124.414,220.48 124.459,220.56 124.504,220.639 124.55,220.718 124.601,220.798 
			124.646,220.877 124.697,220.956 124.748,221.023 124.799,221.103 124.85,221.183 124.906,221.25 124.963,221.329 
			125.019,221.397 125.076,221.477 125.133,221.544 125.189,221.612 125.246,221.691 125.308,221.759 125.37,221.827 
			125.432,221.896 125.494,221.963 125.562,222.031 125.625,222.099 125.692,222.155 125.755,222.224 125.822,222.291 
			125.891,222.348 125.964,222.404 126.032,222.472 126.105,222.528 126.174,222.585 126.247,222.642 126.32,222.698 
			126.394,222.755 126.468,222.812 126.541,222.868 126.615,222.913 126.693,222.97 126.768,223.026 126.841,223.072 
			126.92,223.117 127,223.162 127.078,223.208 127.158,223.253 127.237,223.298 127.316,223.344 127.395,223.389 127.475,223.434 
			127.554,223.468 127.639,223.502 127.718,223.547 127.803,223.581 127.882,223.615 127.961,223.648 128.046,223.683 
			128.131,223.717 128.21,223.751 128.295,223.773 128.38,223.808 128.459,223.83 128.544,223.864 128.629,223.887 128.708,223.909 
			128.793,223.932 128.878,223.954 128.963,223.977 129.042,224 129.127,224.011 129.211,224.033 129.297,224.045 129.375,224.067 
			129.461,224.079 129.539,224.09 129.625,224.113 129.703,224.124 129.789,224.136 129.873,224.136 129.953,224.147 
			130.031,224.158 130.117,224.158 130.195,224.169 130.275,224.169 130.359,224.181 130.439,224.181 130.518,224.181 
			130.598,224.181 130.677,224.181 280.677,224.181 280.756,224.181 280.836,224.181 280.914,224.181 280.994,224.181 
			281.072,224.169 281.158,224.169 281.236,224.158 281.316,224.158 281.4,224.147 281.48,224.136 281.564,224.136 281.644,224.124 
			281.728,224.113 281.809,224.09 281.893,224.079 281.973,224.067 282.057,224.045 282.143,224.033 282.221,224.011 282.307,224 
			282.391,223.977 282.477,223.954 282.555,223.932 282.641,223.909 282.725,223.887 282.81,223.864 282.889,223.83 
			282.975,223.808 283.059,223.773 283.139,223.751 283.223,223.717 283.308,223.683 283.387,223.648 283.467,223.615 
			283.551,223.581 283.631,223.547 283.715,223.502 283.795,223.468 283.873,223.434 283.959,223.389 284.037,223.344 
			284.117,223.298 284.195,223.253 284.275,223.208 284.354,223.162 284.428,223.117 284.508,223.072 284.586,223.026 
			284.66,222.97 284.733,222.913 284.812,222.868 284.887,222.812 284.959,222.755 285.033,222.698 285.107,222.642 
			285.175,222.585 285.248,222.528 285.322,222.472 285.39,222.404 285.457,222.348 285.525,222.291 285.594,222.224 
			285.661,222.155 285.728,222.099 285.791,222.031 285.853,221.963 285.922,221.896 285.978,221.827 286.041,221.759 
			286.102,221.691 286.159,221.612 286.221,221.544 286.277,221.477 286.334,221.397 286.391,221.329 286.447,221.25 
			286.498,221.183 286.549,221.103 286.601,221.023 286.656,220.956 286.702,220.877 286.753,220.798 286.799,220.718 
			286.844,220.639 286.889,220.56 286.934,220.48 286.979,220.401 287.019,220.322 287.064,220.243 287.098,220.164 
			287.138,220.085 287.178,220.006 287.211,219.915 287.251,219.836 287.285,219.757 287.318,219.677 287.348,219.587 
			287.381,219.508 287.41,219.429 287.437,219.338 287.466,219.259 287.494,219.18 287.518,219.089 287.539,219.01 287.568,218.919 
			287.59,218.84 287.607,218.761 287.63,218.67 287.646,218.591 287.664,218.512 287.682,218.421 287.697,218.342 287.715,218.263 
			287.727,218.172 287.743,218.093 287.754,218.014 287.766,217.935 287.771,217.844 287.783,217.765 287.789,217.686 
			287.794,217.606 287.8,217.527 287.806,217.437 287.81,217.357 287.81,217.278 287.816,217.199 287.816,217.12 287.816,217.041 
			287.816,117.048 287.816,116.969 287.816,116.89 287.81,116.8 287.81,116.72 287.806,116.641 287.8,116.562 287.794,116.482 
			287.789,116.403 287.783,116.324 287.771,116.233 287.766,116.154 287.754,116.075 287.743,115.996 287.727,115.905 
			287.715,115.826 287.697,115.747 287.682,115.656 287.664,115.577 287.646,115.498 287.63,115.407 287.607,115.328 
			287.59,115.249 287.568,115.159 287.539,115.079 287.518,114.989 287.494,114.91 287.466,114.83 287.437,114.74 287.41,114.661 
			287.381,114.582 287.348,114.491 287.318,114.412 287.285,114.333 287.251,114.254 287.211,114.163 287.178,114.084 
			287.138,114.005 287.098,113.926 287.064,113.846 287.019,113.767 286.979,113.688 286.934,113.598 286.889,113.518 
			286.844,113.45 286.799,113.371 286.753,113.292 286.702,113.213 286.656,113.133 286.601,113.054 286.549,112.986 
			286.498,112.907 286.447,112.828 286.391,112.76 286.334,112.681 286.277,112.612 286.221,112.545 286.159,112.466 
			286.102,112.397 286.041,112.33 285.978,112.262 285.922,112.194 285.853,112.126 285.791,112.059 285.728,111.99 
			285.661,111.923 285.594,111.866 285.525,111.798 285.457,111.741 285.39,111.674 285.322,111.617 285.248,111.561 
			285.175,111.492 285.107,111.436 285.033,111.38 284.959,111.323 284.887,111.277 284.812,111.221 284.733,111.164 
			284.66,111.119 284.586,111.062 284.508,111.018 284.428,110.961 284.354,110.915 284.275,110.87 284.195,110.825 
			284.117,110.779 284.037,110.734 283.959,110.7 283.873,110.655 283.795,110.621 283.715,110.576 283.631,110.542 
			283.551,110.508 283.467,110.475 283.387,110.44 283.308,110.406 283.223,110.372 283.139,110.339 283.059,110.305 
			282.975,110.282 282.889,110.248 282.81,110.226 282.725,110.203 282.641,110.18 282.555,110.157 282.477,110.135 
			282.391,110.112 282.307,110.09 282.221,110.066 282.143,110.056 282.057,110.033 281.973,110.021 281.893,109.999 
			281.809,109.987 281.728,109.977 281.644,109.965 281.564,109.954 281.48,109.942 281.4,109.942 281.316,109.931 281.236,109.92 
			281.158,109.92 281.072,109.908 280.994,109.908 280.914,109.908 280.836,109.897 280.756,109.897 280.677,109.897 		"/>
	</g>
	<g id="POLYLINE_188_">
		
			<polygon fill="none" stroke="#1B7FFF" stroke-width="3.5" stroke-linecap="round" stroke-linejoin="round" stroke-miterlimit="10" points="
			312.818,109.897 312.738,109.897 312.659,109.897 312.58,109.908 312.501,109.908 312.422,109.908 312.337,109.92 312.258,109.92 
			312.178,109.931 312.094,109.942 312.014,109.942 311.93,109.954 311.85,109.965 311.766,109.977 311.685,109.987 
			311.602,109.999 311.517,110.021 311.437,110.033 311.352,110.056 311.268,110.066 311.188,110.09 311.103,110.112 
			311.018,110.135 310.934,110.157 310.854,110.18 310.769,110.203 310.685,110.226 310.6,110.248 310.52,110.282 310.435,110.305 
			310.352,110.339 310.271,110.372 310.187,110.406 310.107,110.44 310.023,110.475 309.943,110.508 309.859,110.542 
			309.779,110.576 309.7,110.621 309.615,110.655 309.536,110.7 309.457,110.734 309.378,110.779 309.299,110.825 309.22,110.87 
			309.141,110.915 309.06,110.961 308.987,111.018 308.908,111.062 308.835,111.119 308.756,111.164 308.682,111.221 
			308.608,111.277 308.535,111.323 308.461,111.38 308.388,111.436 308.314,111.492 308.246,111.561 308.173,111.617 
			308.105,111.674 308.037,111.741 307.969,111.798 307.901,111.866 307.834,111.923 307.766,111.99 307.703,112.059 
			307.635,112.126 307.573,112.194 307.511,112.262 307.454,112.33 307.393,112.397 307.33,112.466 307.273,112.545 
			307.217,112.612 307.16,112.681 307.103,112.76 307.047,112.828 306.996,112.907 306.939,112.986 306.889,113.054 
			306.838,113.133 306.793,113.213 306.742,113.292 306.696,113.371 306.65,113.45 306.605,113.518 306.56,113.598 306.516,113.688 
			306.476,113.767 306.43,113.846 306.391,113.926 306.357,114.005 306.317,114.084 306.277,114.163 306.244,114.254 
			306.209,114.333 306.176,114.412 306.142,114.491 306.113,114.582 306.085,114.661 306.057,114.74 306.029,114.83 306,114.91 
			305.977,114.989 305.949,115.079 305.927,115.159 305.904,115.249 305.881,115.328 305.865,115.407 305.848,115.498 
			305.824,115.577 305.813,115.656 305.797,115.747 305.779,115.826 305.768,115.905 305.752,115.996 305.74,116.075 
			305.728,116.154 305.723,116.233 305.712,116.324 305.706,116.403 305.701,116.482 305.689,116.562 305.689,116.641 
			305.684,116.72 305.678,116.8 305.678,116.89 305.678,116.969 305.678,117.048 305.678,217.041 305.678,217.12 305.678,217.199 
			305.678,217.278 305.684,217.357 305.689,217.437 305.689,217.527 305.701,217.606 305.706,217.686 305.712,217.765 
			305.723,217.844 305.728,217.935 305.74,218.014 305.752,218.093 305.768,218.172 305.779,218.263 305.797,218.342 
			305.813,218.421 305.824,218.512 305.848,218.591 305.865,218.67 305.881,218.761 305.904,218.84 305.927,218.919 305.949,219.01 
			305.977,219.089 306,219.18 306.029,219.259 306.057,219.338 306.085,219.429 306.113,219.508 306.142,219.587 306.176,219.677 
			306.209,219.757 306.244,219.836 306.277,219.915 306.317,220.006 306.357,220.085 306.391,220.164 306.43,220.243 
			306.476,220.322 306.516,220.401 306.56,220.48 306.605,220.56 306.65,220.639 306.696,220.718 306.742,220.798 306.793,220.877 
			306.838,220.956 306.889,221.023 306.939,221.103 306.996,221.183 307.047,221.25 307.103,221.329 307.16,221.397 
			307.217,221.477 307.273,221.544 307.33,221.612 307.393,221.691 307.454,221.759 307.511,221.827 307.573,221.896 
			307.635,221.963 307.703,222.031 307.766,222.099 307.834,222.155 307.901,222.224 307.969,222.291 308.037,222.348 
			308.105,222.404 308.173,222.472 308.246,222.528 308.314,222.585 308.388,222.642 308.461,222.698 308.535,222.755 
			308.608,222.812 308.682,222.868 308.756,222.913 308.835,222.97 308.908,223.026 308.987,223.072 309.06,223.117 
			309.141,223.162 309.22,223.208 309.299,223.253 309.378,223.298 309.457,223.344 309.536,223.389 309.615,223.434 309.7,223.468 
			309.779,223.502 309.859,223.547 309.943,223.581 310.023,223.615 310.107,223.648 310.187,223.683 310.271,223.717 
			310.352,223.751 310.435,223.773 310.52,223.808 310.6,223.83 310.685,223.864 310.769,223.887 310.854,223.909 310.934,223.932 
			311.018,223.954 311.103,223.977 311.188,224 311.268,224.011 311.352,224.033 311.437,224.045 311.517,224.067 311.602,224.079 
			311.685,224.09 311.766,224.113 311.85,224.124 311.93,224.136 312.014,224.136 312.094,224.147 312.178,224.158 312.258,224.158 
			312.337,224.169 312.422,224.169 312.501,224.181 312.58,224.181 312.659,224.181 312.738,224.181 312.818,224.181 
			462.818,224.181 462.897,224.181 462.977,224.181 463.055,224.181 463.135,224.181 463.219,224.169 463.299,224.169 
			463.378,224.158 463.457,224.158 463.542,224.147 463.621,224.136 463.706,224.136 463.785,224.124 463.87,224.113 
			463.955,224.09 464.034,224.079 464.119,224.067 464.198,224.045 464.283,224.033 464.367,224.011 464.453,224 464.532,223.977 
			464.617,223.954 464.701,223.932 464.781,223.909 464.865,223.887 464.951,223.864 465.029,223.83 465.115,223.808 
			465.199,223.773 465.279,223.751 465.363,223.717 465.449,223.683 465.527,223.648 465.613,223.615 465.691,223.581 
			465.777,223.547 465.855,223.502 465.935,223.468 466.02,223.434 466.1,223.389 466.178,223.344 466.258,223.298 466.337,223.253 
			466.416,223.208 466.495,223.162 466.574,223.117 466.648,223.072 466.727,223.026 466.801,222.97 466.88,222.913 
			466.953,222.868 467.027,222.812 467.101,222.755 467.174,222.698 467.248,222.642 467.321,222.585 467.389,222.528 
			467.463,222.472 467.53,222.404 467.599,222.348 467.666,222.291 467.734,222.224 467.803,222.155 467.87,222.099 
			467.932,222.031 467.994,221.963 468.062,221.896 468.125,221.827 468.188,221.759 468.243,221.691 468.306,221.612 
			468.362,221.544 468.419,221.477 468.475,221.397 468.531,221.329 468.588,221.25 468.64,221.183 468.695,221.103 
			468.747,221.023 468.798,220.956 468.844,220.877 468.895,220.798 468.939,220.718 468.99,220.639 469.035,220.56 469.075,220.48 
			469.12,220.401 469.16,220.322 469.205,220.243 469.244,220.164 469.284,220.085 469.318,220.006 469.357,219.915 
			469.393,219.836 469.426,219.757 469.46,219.677 469.488,219.587 469.522,219.508 469.551,219.429 469.578,219.338 
			469.607,219.259 469.635,219.18 469.658,219.089 469.685,219.01 469.709,218.919 469.731,218.84 469.748,218.761 469.772,218.67 
			469.793,218.591 469.81,218.512 469.828,218.421 469.839,218.342 469.855,218.263 469.873,218.172 469.885,218.093 
			469.896,218.014 469.906,217.935 469.918,217.844 469.924,217.765 469.93,217.686 469.94,217.606 469.946,217.527 
			469.952,217.437 469.952,217.357 469.957,217.278 469.957,217.199 469.957,217.12 469.963,217.041 469.963,117.048 
			469.957,116.969 469.957,116.89 469.957,116.8 469.952,116.72 469.952,116.641 469.946,116.562 469.94,116.482 469.93,116.403 
			469.924,116.324 469.918,116.233 469.906,116.154 469.896,116.075 469.885,115.996 469.873,115.905 469.855,115.826 
			469.839,115.747 469.828,115.656 469.81,115.577 469.793,115.498 469.772,115.407 469.748,115.328 469.731,115.249 
			469.709,115.159 469.685,115.079 469.658,114.989 469.635,114.91 469.607,114.83 469.578,114.74 469.551,114.661 469.522,114.582 
			469.488,114.491 469.46,114.412 469.426,114.333 469.393,114.254 469.357,114.163 469.318,114.084 469.284,114.005 
			469.244,113.926 469.205,113.846 469.16,113.767 469.12,113.688 469.075,113.598 469.035,113.518 468.99,113.45 468.939,113.371 
			468.895,113.292 468.844,113.213 468.798,113.133 468.747,113.054 468.695,112.986 468.64,112.907 468.588,112.828 
			468.531,112.76 468.475,112.681 468.419,112.612 468.362,112.545 468.306,112.466 468.243,112.397 468.188,112.33 
			468.125,112.262 468.062,112.194 467.994,112.126 467.932,112.059 467.87,111.99 467.803,111.923 467.734,111.866 
			467.666,111.798 467.599,111.741 467.53,111.674 467.463,111.617 467.389,111.561 467.321,111.492 467.248,111.436 
			467.174,111.38 467.101,111.323 467.027,111.277 466.953,111.221 466.88,111.164 466.801,111.119 466.727,111.062 
			466.648,111.018 466.574,110.961 466.495,110.915 466.416,110.87 466.337,110.825 466.258,110.779 466.178,110.734 466.1,110.7 
			466.02,110.655 465.935,110.621 465.855,110.576 465.777,110.542 465.691,110.508 465.613,110.475 465.527,110.44 
			465.449,110.406 465.363,110.372 465.279,110.339 465.199,110.305 465.115,110.282 465.029,110.248 464.951,110.226 
			464.865,110.203 464.781,110.18 464.701,110.157 464.617,110.135 464.532,110.112 464.453,110.09 464.367,110.066 
			464.283,110.056 464.198,110.033 464.119,110.021 464.034,109.999 463.955,109.987 463.87,109.977 463.785,109.965 
			463.706,109.954 463.621,109.942 463.542,109.942 463.457,109.931 463.378,109.92 463.299,109.92 463.219,109.908 
			463.135,109.908 463.055,109.908 462.977,109.897 462.897,109.897 462.818,109.897 		"/>
	</g>
	<g id="LINE_21_">
		
			<line fill="none" stroke="#1B7FFF" stroke-width="3.5" stroke-linecap="round" stroke-linejoin="round" stroke-miterlimit="10" x1="103.889" y1="243.824" x2="489.601" y2="243.824"/>
	</g>
</g>
</svg>
